<svg width="113" height="19" viewBox="0 0 113 19" fill="none" xmlns="http://www.w3.org/2000/svg">
<path d="M13.475 8.87073H17.85V16.1207C16.85 16.8374 15.7 17.3874 14.4 17.7707C13.1 18.1541 11.8 18.3457 10.5 18.3457C8.66667 18.3457 7.01667 17.9624 5.55 17.1957C4.08333 16.4124 2.93333 15.3291 2.1 13.9457C1.26667 12.5624 0.85 10.9957 0.85 9.24573C0.85 7.49573 1.26667 5.92906 2.1 4.54573C2.93333 3.16239 4.09167 2.08739 5.575 1.32073C7.05833 0.537393 8.73333 0.145726 10.6 0.145726C12.2333 0.145726 13.7 0.420726 15 0.970726C16.3 1.52073 17.3833 2.31239 18.25 3.34573L15.1 6.19573C13.9167 4.89573 12.5 4.24573 10.85 4.24573C9.35 4.24573 8.14167 4.70406 7.225 5.62073C6.30833 6.52073 5.85 7.72906 5.85 9.24573C5.85 10.2124 6.05833 11.0791 6.475 11.8457C6.89167 12.5957 7.475 13.1874 8.225 13.6207C8.975 14.0374 9.83333 14.2457 10.8 14.2457C11.75 14.2457 12.6417 14.0541 13.475 13.6707V8.87073ZM31.8633 11.7207V17.9957H26.9133V11.6457L20.2383 0.495726H25.4633L29.6133 7.44573L33.7633 0.495726H38.5633L31.8633 11.7207ZM57.049 17.9957L56.999 8.72073L52.499 16.2707H50.299L45.824 8.97073V17.9957H41.249V0.495726H45.324L51.474 10.5957L57.474 0.495726H61.549L61.599 17.9957H57.049ZM73.3516 11.6457L71.5016 13.6207V17.9957H66.6016V0.495726H71.5016V7.77073L78.2766 0.495726H83.7266L76.5766 8.24573L84.1016 17.9957H78.3516L73.3516 11.6457ZM94.7313 18.3457C92.1313 18.3457 90.1063 17.6374 88.6563 16.2207C87.2229 14.8041 86.5063 12.7957 86.5063 10.1957V0.495726H91.4563V10.0457C91.4563 12.8457 92.5646 14.2457 94.7813 14.2457C96.9813 14.2457 98.0813 12.8457 98.0813 10.0457V0.495726H102.956V10.1957C102.956 12.7957 102.231 14.8041 100.781 16.2207C99.3479 17.6374 97.3313 18.3457 94.7313 18.3457ZM109.438 18.2207C108.638 18.2207 107.963 17.9541 107.413 17.4207C106.863 16.8874 106.588 16.2124 106.588 15.3957C106.588 14.5624 106.855 13.8874 107.388 13.3707C107.938 12.8541 108.621 12.5957 109.438 12.5957C110.271 12.5957 110.955 12.8541 111.488 13.3707C112.021 13.8874 112.288 14.5624 112.288 15.3957C112.288 16.2124 112.013 16.8874 111.463 17.4207C110.93 17.9541 110.255 18.2207 109.438 18.2207Z" fill="white"/>
</svg>
