<svg width="60" height="11" viewBox="0 0 60 11" fill="none" xmlns="http://www.w3.org/2000/svg">
<path d="M4.2858 1.74785C4.46921 1.37623 4.99913 1.37623 5.18254 1.74785L6.00917 3.42279C6.082 3.57036 6.22279 3.67265 6.38564 3.69631L8.23405 3.9649C8.64416 4.0245 8.80792 4.52848 8.51116 4.81775L7.17364 6.12151C7.05579 6.23638 7.00202 6.40188 7.02984 6.56408L7.34558 8.40502C7.41564 8.81347 6.98692 9.12495 6.62011 8.93211L4.96684 8.06293C4.82118 7.98635 4.64716 7.98635 4.5015 8.06293L2.84823 8.93211C2.48142 9.12495 2.0527 8.81347 2.12276 8.40502L2.4385 6.56408C2.46632 6.40188 2.41255 6.23638 2.2947 6.12151L0.957181 4.81775C0.660423 4.52848 0.824178 4.0245 1.23429 3.9649L3.0827 3.69631C3.24555 3.67265 3.38634 3.57036 3.45917 3.42279L4.2858 1.74785Z" fill="#FFBC01"/>
<path d="M16.9187 1.74785C17.1021 1.37623 17.6321 1.37623 17.8155 1.74785L18.6421 3.42279C18.7149 3.57036 18.8557 3.67265 19.0186 3.69631L20.867 3.9649C21.2771 4.0245 21.4409 4.52848 21.1441 4.81775L19.8066 6.12151C19.6887 6.23638 19.635 6.40188 19.6628 6.56408L19.9785 8.40502C20.0486 8.81347 19.6199 9.12495 19.253 8.93211L17.5998 8.06293C17.4541 7.98635 17.2801 7.98635 17.1344 8.06293L15.4812 8.93211C15.1144 9.12495 14.6856 8.81347 14.7557 8.40502L15.0714 6.56408C15.0993 6.40188 15.0455 6.23638 14.9276 6.12151L13.5901 4.81775C13.2934 4.52848 13.4571 4.0245 13.8672 3.9649L15.7156 3.69631C15.8785 3.67265 16.0193 3.57036 16.0921 3.42279L16.9187 1.74785Z" fill="#FFBC01"/>
<path d="M29.5517 1.74785C29.7351 1.37623 30.265 1.37623 30.4484 1.74785L31.275 3.42279C31.3479 3.57036 31.4887 3.67265 31.6515 3.69631L33.4999 3.9649C33.91 4.0245 34.0738 4.52848 33.777 4.81775L32.4395 6.12151C32.3217 6.23638 32.2679 6.40188 32.2957 6.56408L32.6115 8.40502C32.6815 8.81347 32.2528 9.12495 31.886 8.93211L30.2327 8.06293C30.087 7.98635 29.913 7.98635 29.7674 8.06293L28.1141 8.93211C27.7473 9.12495 27.3186 8.81347 27.3886 8.40502L27.7044 6.56408C27.7322 6.40188 27.6784 6.23638 27.5606 6.12151L26.2231 4.81775C25.9263 4.52848 26.09 4.0245 26.5002 3.9649L28.3486 3.69631C28.5114 3.67265 28.6522 3.57036 28.725 3.42279L29.5517 1.74785Z" fill="#FFBC01"/>
<path d="M42.1845 1.74785C42.368 1.37623 42.8979 1.37623 43.0813 1.74785L43.9079 3.42279C43.9807 3.57036 44.1215 3.67265 44.2844 3.69631L46.1328 3.9649C46.5429 4.0245 46.7067 4.52848 46.4099 4.81775L45.0724 6.12151C44.9545 6.23638 44.9008 6.40188 44.9286 6.56408L45.2443 8.40502C45.3144 8.81347 44.8857 9.12495 44.5189 8.93211L42.8656 8.06293C42.7199 7.98635 42.5459 7.98635 42.4002 8.06293L40.747 8.93211C40.3802 9.12495 39.9514 8.81347 40.0215 8.40502L40.3372 6.56408C40.3651 6.40188 40.3113 6.23638 40.1934 6.12151L38.8559 4.81775C38.5592 4.52848 38.7229 4.0245 39.133 3.9649L40.9814 3.69631C41.1443 3.67265 41.2851 3.57036 41.3579 3.42279L42.1845 1.74785Z" fill="#FFBC01"/>
<path d="M54.8174 1.74809C55.0008 1.37647 55.5307 1.37647 55.7142 1.74809L56.5408 3.42304C56.6136 3.57061 56.7544 3.67289 56.9173 3.69656L58.7657 3.96515C59.1758 4.02474 59.3395 4.52873 59.0428 4.81799L57.7053 6.12176C57.5874 6.23662 57.5336 6.40212 57.5615 6.56432L57.8772 8.40526C57.9473 8.81372 57.5185 9.1252 57.1517 8.93235L55.4985 8.06318C55.3528 7.9866 55.1788 7.9866 55.0331 8.06318L53.3798 8.93235C53.013 9.1252 52.5843 8.81372 52.6544 8.40526L52.9701 6.56432C52.9979 6.40212 52.9442 6.23662 52.8263 6.12176L51.4888 4.81799C51.192 4.52873 51.3558 4.02474 51.7659 3.96515L53.6143 3.69656C53.7772 3.67289 53.918 3.57061 53.9908 3.42304L54.8174 1.74809Z" fill="#E9E9EB"/>
<path d="M54.8107 1.76167C54.9231 1.53396 55.2659 1.61396 55.2659 1.86789V7.94056L53.3799 8.93208C53.0131 9.12492 52.5844 8.81344 52.6544 8.40499L52.9702 6.56403C52.998 6.40183 52.9442 6.23633 52.8264 6.12146L51.4888 4.8177C51.1921 4.52844 51.3558 4.02445 51.7659 3.96486L53.6144 3.69627C53.7772 3.6726 53.918 3.57032 53.9908 3.42276L54.8107 1.76167Z" fill="#FFBC01"/>
<path d="M55.2652 1.15259V1.33752C55.1685 1.37126 54.988 1.41032 55.0394 1.29664C55.0908 1.18296 55.2114 1.15324 55.2652 1.15259Z" fill="#FFBC01"/>
</svg>
